REM DIRINDEX 1\2\4\8,1\2\4\9,1\2\4\10,1\2\5\11,1\2\5\12,1\2\5\13,1\2\5\14,1\2\5\15,1\3\6\16,1\3\6\17,1\3\6\18,1\3\7\19,1\3\7\20,1\3\7\21,1\3\7\22,1\3\7\23
REM DIRNAME "folder01","folder02","folder03","folder04","folder05","folder06","folder07","folder08","folder09","folder10","folder11","folder12","folder13","folder14","folder15","folder16","folder17","folder18","folder19","folder20","folder21","folder22","folder23"
TITLE ""
FILE "LR_black_phrase_E_S06.mp3" MP3
  TRACK 01 AUDIO
    TITLE "0:"
    INDEX 01 00:00:00
  TRACK 02 AUDIO
    TITLE "16:cjc171_10701"
    INDEX 01 00:00:14
  TRACK 03 AUDIO
    TITLE "0:"
    INDEX 01 00:01:55
  TRACK 04 AUDIO
    TITLE "17:cjc171_10702"
    INDEX 01 00:02:11
  TRACK 05 AUDIO
    TITLE "0:"
    INDEX 01 00:04:24
  TRACK 06 AUDIO
    TITLE "18:cjc171_10703"
    INDEX 01 00:05:06
  TRACK 07 AUDIO
    TITLE "0:"
    INDEX 01 00:07:18
  TRACK 08 AUDIO
    TITLE "16:cjc171_10704"
    INDEX 01 00:08:25
  TRACK 09 AUDIO
    TITLE "0:"
    INDEX 01 00:09:46
  TRACK 10 AUDIO
    TITLE "17:cjc171_10705"
    INDEX 01 00:10:05
  TRACK 11 AUDIO
    TITLE "0:"
    INDEX 01 00:11:59
  TRACK 12 AUDIO
    TITLE "18:cjc171_10706"
    INDEX 01 00:12:37
  TRACK 13 AUDIO
    TITLE "0:"
    INDEX 01 00:14:18
  TRACK 14 AUDIO
    TITLE "16:cjc171_10707"
    INDEX 01 00:15:18
  TRACK 15 AUDIO
    TITLE "0:"
    INDEX 01 00:16:33
  TRACK 16 AUDIO
    TITLE "17:cjc171_10708"
    INDEX 01 00:16:52
  TRACK 17 AUDIO
    TITLE "0:"
    INDEX 01 00:18:59
  TRACK 18 AUDIO
    TITLE "18:cjc171_10709"
    INDEX 01 00:19:29
  TRACK 19 AUDIO
    TITLE "0:"
    INDEX 01 00:21:36
  TRACK 20 AUDIO
    TITLE "16:cjc171_10710"
    INDEX 01 00:22:31
  TRACK 21 AUDIO
    TITLE "0:"
    INDEX 01 00:23:56
  TRACK 22 AUDIO
    TITLE "17:cjc171_10711"
    INDEX 01 00:24:03
  TRACK 23 AUDIO
    TITLE "0:"
    INDEX 01 00:25:65
  TRACK 24 AUDIO
    TITLE "18:cjc171_10712"
    INDEX 01 00:26:37
  TRACK 25 AUDIO
    TITLE "0:"
    INDEX 01 00:28:24
  TRACK 26 AUDIO
    TITLE "16:cjc171_10713"
    INDEX 01 00:29:28
  TRACK 27 AUDIO
    TITLE "0:"
    INDEX 01 00:30:45
  TRACK 28 AUDIO
    TITLE "17:cjc171_10714"
    INDEX 01 00:30:72
  TRACK 29 AUDIO
    TITLE "0:"
    INDEX 01 00:33:23
  TRACK 30 AUDIO
    TITLE "18:cjc171_10715"
    INDEX 01 00:34:05
  TRACK 31 AUDIO
    TITLE "0:"
    INDEX 01 00:36:32
  TRACK 32 AUDIO
    TITLE "16:cjc171_10716"
    INDEX 01 00:37:37
  TRACK 33 AUDIO
    TITLE "0:"
    INDEX 01 00:38:56
  TRACK 34 AUDIO
    TITLE "17:cjc171_10717"
    INDEX 01 00:39:10
  TRACK 35 AUDIO
    TITLE "0:"
    INDEX 01 00:41:56
  TRACK 36 AUDIO
    TITLE "18:cjc171_10718"
    INDEX 01 00:42:38
  TRACK 37 AUDIO
    TITLE "0:"
    INDEX 01 00:45:09
  TRACK 38 AUDIO
    TITLE "16:cjc171_10719"
    INDEX 01 00:46:08
  TRACK 39 AUDIO
    TITLE "0:"
    INDEX 01 00:47:20
  TRACK 40 AUDIO
    TITLE "17:cjc171_10720"
    INDEX 01 00:47:41
  TRACK 41 AUDIO
    TITLE "0:"
    INDEX 01 00:49:21
  TRACK 42 AUDIO
    TITLE "18:cjc171_10721"
    INDEX 01 00:49:66
  TRACK 43 AUDIO
    TITLE "0:"
    INDEX 01 00:51:45
  TRACK 44 AUDIO
    TITLE "16:cjc171_10722"
    INDEX 01 00:52:40
  TRACK 45 AUDIO
    TITLE "0:"
    INDEX 01 00:53:69
  TRACK 46 AUDIO
    TITLE "17:cjc171_10723"
    INDEX 01 00:54:14
  TRACK 47 AUDIO
    TITLE "0:"
    INDEX 01 00:56:54
  TRACK 48 AUDIO
    TITLE "18:cjc171_10724"
    INDEX 01 00:57:24
  TRACK 49 AUDIO
    TITLE "0:"
    INDEX 01 00:59:64
  TRACK 50 AUDIO
    TITLE "16:cjc171_10725"
    INDEX 01 01:00:65
  TRACK 51 AUDIO
    TITLE "0:"
    INDEX 01 01:02:04
  TRACK 52 AUDIO
    TITLE "17:cjc171_10726"
    INDEX 01 01:02:33
  TRACK 53 AUDIO
    TITLE "0:"
    INDEX 01 01:05:02
  TRACK 54 AUDIO
    TITLE "18:cjc171_10727"
    INDEX 01 01:05:57
  TRACK 55 AUDIO
    TITLE "0:"
    INDEX 01 01:08:28
  TRACK 56 AUDIO
    TITLE "16:cjc171_10728"
    INDEX 01 01:09:33
  TRACK 57 AUDIO
    TITLE "0:"
    INDEX 01 01:10:50
  TRACK 58 AUDIO
    TITLE "17:cjc171_10729"
    INDEX 01 01:11:04
  TRACK 59 AUDIO
    TITLE "0:"
    INDEX 01 01:12:65
  TRACK 60 AUDIO
    TITLE "18:cjc171_10730"
    INDEX 01 01:13:45
  TRACK 61 AUDIO
    TITLE "0:"
    INDEX 01 01:15:26
  TRACK 62 AUDIO
    TITLE "16:cjc171_10731"
    INDEX 01 01:16:25
  TRACK 63 AUDIO
    TITLE "0:"
    INDEX 01 01:17:40
  TRACK 64 AUDIO
    TITLE "17:cjc171_10732"
    INDEX 01 01:17:62
  TRACK 65 AUDIO
    TITLE "0:"
    INDEX 01 01:20:31
  TRACK 66 AUDIO
    TITLE "18:cjc171_10733"
    INDEX 01 01:21:05
  TRACK 67 AUDIO
    TITLE "0:"
    INDEX 01 01:23:49
  TRACK 68 AUDIO
    TITLE "16:cjc171_10734"
    INDEX 01 01:24:48
  TRACK 69 AUDIO
    TITLE "0:"
    INDEX 01 01:25:58
  TRACK 70 AUDIO
    TITLE "17:cjc171_10735"
    INDEX 01 01:26:02
  TRACK 71 AUDIO
    TITLE "0:"
    INDEX 01 01:28:38
  TRACK 72 AUDIO
    TITLE "18:cjc171_10736"
    INDEX 01 01:29:06
  TRACK 73 AUDIO
    TITLE "0:"
    INDEX 01 01:31:44
  TRACK 74 AUDIO
    TITLE "16:cjc171_10737"
    INDEX 01 01:32:42
  TRACK 75 AUDIO
    TITLE "0:"
    INDEX 01 01:33:69
  TRACK 76 AUDIO
    TITLE "17:cjc171_10738"
    INDEX 01 01:34:23
  TRACK 77 AUDIO
    TITLE "0:"
    INDEX 01 01:36:46
  TRACK 78 AUDIO
    TITLE "18:cjc171_10739"
    INDEX 01 01:37:25
  TRACK 79 AUDIO
    TITLE "0:"
    INDEX 01 01:39:48
  TRACK 80 AUDIO
    TITLE "16:cjc171_10740"
    INDEX 01 01:40:53
  TRACK 81 AUDIO
    TITLE "0:"
    INDEX 01 01:41:60
  TRACK 82 AUDIO
    TITLE "17:cjc171_10741"
    INDEX 01 01:42:15
  TRACK 83 AUDIO
    TITLE "0:"
    INDEX 01 01:44:18
  TRACK 84 AUDIO
    TITLE "18:cjc171_10742"
    INDEX 01 01:44:72
  TRACK 85 AUDIO
    TITLE "0:"
    INDEX 01 01:47:00
  TRACK 86 AUDIO
    TITLE "16:cjc171_10743"
    INDEX 01 01:48:02
  TRACK 87 AUDIO
    TITLE "0:"
    INDEX 01 01:49:25
  TRACK 88 AUDIO
    TITLE "17:cjc171_10744"
    INDEX 01 01:49:46
  TRACK 89 AUDIO
    TITLE "0:"
    INDEX 01 01:51:67
  TRACK 90 AUDIO
    TITLE "18:cjc171_10745"
    INDEX 01 01:52:39
  TRACK 91 AUDIO
    TITLE "0:"
    INDEX 01 01:54:59
  TRACK 92 AUDIO
    TITLE "16:cjc171_10746"
    INDEX 01 01:55:53
  TRACK 93 AUDIO
    TITLE "0:"
    INDEX 01 01:57:03
  TRACK 94 AUDIO
    TITLE "17:cjc171_10747"
    INDEX 01 01:57:20
  TRACK 95 AUDIO
    TITLE "0:"
    INDEX 01 01:59:37
  TRACK 96 AUDIO
    TITLE "18:cjc171_10748"
    INDEX 01 02:00:07
  TRACK 97 AUDIO
    TITLE "0:"
    INDEX 01 02:02:25
  TRACK 98 AUDIO
    TITLE "16:cjc171_10749"
    INDEX 01 02:03:25
  TRACK 99 AUDIO
    TITLE "0:"
    INDEX 01 02:04:42
  TRACK 100 AUDIO
    TITLE "17:cjc171_10750"
    INDEX 01 02:04:69
  TRACK 101 AUDIO
    TITLE "0:"
    INDEX 01 02:07:25
  TRACK 102 AUDIO
    TITLE "18:cjc171_10751"
    INDEX 01 02:08:04
  TRACK 103 AUDIO
    TITLE "0:"
    INDEX 01 02:10:35
  TRACK 104 AUDIO
    TITLE "16:cjc171_10752"
    INDEX 01 02:11:40
  TRACK 105 AUDIO
    TITLE "0:"
    INDEX 01 02:12:71
  TRACK 106 AUDIO
    TITLE "17:cjc171_10753"
    INDEX 01 02:13:25
  TRACK 107 AUDIO
    TITLE "0:"
    INDEX 01 02:16:02
  TRACK 108 AUDIO
    TITLE "18:cjc171_10754"
    INDEX 01 02:16:57
  TRACK 109 AUDIO
    TITLE "0:"
    INDEX 01 02:19:34
  TRACK 110 AUDIO
    TITLE "16:cjc171_10755"
    INDEX 01 02:20:37
  TRACK 111 AUDIO
    TITLE "0:"
    INDEX 01 02:21:60
  TRACK 112 AUDIO
    TITLE "17:cjc171_10756"
    INDEX 01 02:22:07
  TRACK 113 AUDIO
    TITLE "0:"
    INDEX 01 02:24:45
  TRACK 114 AUDIO
    TITLE "18:cjc171_10757"
    INDEX 01 02:25:15
  TRACK 115 AUDIO
    TITLE "0:"
    INDEX 01 02:27:53
  TRACK 116 AUDIO
    TITLE "16:cjc171_10758"
    INDEX 01 02:28:46
  TRACK 117 AUDIO
    TITLE "0:"
    INDEX 01 02:29:73
  TRACK 118 AUDIO
    TITLE "17:cjc171_10759"
    INDEX 01 02:30:20
  TRACK 119 AUDIO
    TITLE "0:"
    INDEX 01 02:32:58
  TRACK 120 AUDIO
    TITLE "18:cjc171_10760"
    INDEX 01 02:33:28
  TRACK 121 AUDIO
    TITLE "0:"
    INDEX 01 02:35:64
